<svg width="109" height="20" viewBox="0 0 109 20" fill="none" xmlns="http://www.w3.org/2000/svg">
<path d="M12.4019 16.6278V13.0843L9.30136 9.9838L12.4019 6.88329V3.33984L5.79199 9.9838L12.4019 16.6278Z" fill="#ED1C24"/>
<path d="M0 19.9659H20V0H0V19.9659ZM2.48722 2.48722H17.4787V17.4787H2.48722V2.48722Z" fill="#ED1C24"/>
<path d="M30.9368 2.1808C31.8567 2.1808 32.8788 2.52151 33.9351 3.16887C34.0032 3.03259 34.0713 2.69187 34.0373 2.04451C34.0373 1.43122 34.0032 1.02236 33.9351 0.852005C33.0833 0.340932 32.027 0.0683594 30.8005 0.0683594C29.0287 0.0683594 27.6318 0.579433 26.5756 1.63565C25.5194 2.6578 25.0083 3.95252 25.0083 5.48574C25.0083 7.01896 25.5194 8.2796 26.5756 9.33582C27.6318 10.358 29.0628 10.9031 30.8005 10.9031C32.027 10.9031 33.0833 10.6305 33.9351 10.1195C34.0032 9.94911 34.0373 9.54025 34.0373 8.92696C34.0373 8.31368 34.0032 7.93889 33.9351 7.8026C32.8788 8.44996 31.8908 8.79068 30.9368 8.79068C29.9827 8.79068 29.165 8.48403 28.5177 7.90482C27.8703 7.29153 27.5637 6.50788 27.5637 5.51981C27.5637 4.53173 27.8703 3.71402 28.5177 3.1348C29.165 2.48744 29.9827 2.1808 30.9368 2.1808Z" fill="white"/>
<path d="M45.5877 10.5969V0.307293C44.9062 0.205078 44.2589 0.205078 43.6115 0.307293L38.8074 6.33796V0.307293C37.9556 0.171007 37.1039 0.171007 36.2861 0.307293V10.5969C36.9676 10.6991 37.6149 10.6991 38.2623 10.5969L43.0664 4.56624V10.5969C43.9182 10.7673 44.77 10.7673 45.5877 10.5969Z" fill="white"/>
<path d="M57.3767 10.5969V0.307293C56.5249 0.171007 55.6732 0.171007 54.8554 0.307293V4.36181H50.5965V0.307293C49.7447 0.171007 48.8929 0.171007 48.0752 0.307293V10.5969C48.927 10.7332 49.7788 10.7332 50.5965 10.5969V6.47425H54.8554V10.631C55.6732 10.7673 56.5249 10.7673 57.3767 10.5969Z" fill="white"/>
<path d="M67.0187 2.41908C67.155 1.73765 67.155 1.02214 67.0187 0.306641H59.8296V10.5963H67.0187C67.155 9.88075 67.155 9.19932 67.0187 8.48381H62.3509V6.43952H66.4395C66.5758 5.75809 66.5758 5.04259 66.4395 4.32708H62.3509V2.38501H67.0187V2.41908Z" fill="white"/>
<path d="M75.9797 1.26064C75.2642 0.613284 74.3443 0.306641 73.1859 0.306641H69.1313V10.5963C69.9831 10.7325 70.8349 10.7325 71.6526 10.5963V7.22317H73.1518C74.3102 7.22317 75.2302 6.91652 75.9457 6.26916C76.6612 5.6218 77.036 4.80409 77.036 3.78194C77.07 2.72572 76.6952 1.908 75.9797 1.26064ZM73.1859 5.11073H71.6867V2.41908H73.1859C73.9354 2.41908 74.4806 2.86201 74.4806 3.78194C74.4806 4.6678 73.9354 5.11073 73.1859 5.11073Z" fill="white"/>
<path d="M78.9434 10.5963C79.7951 10.7325 80.6469 10.7325 81.4647 10.5963V2.41908H85.7236C85.8599 1.73765 85.8599 1.02214 85.7236 0.306641H78.9434V10.5963Z" fill="white"/>
<path d="M87.5645 0.307293V10.5969C88.2459 10.6991 88.8932 10.6991 89.5406 10.5969L94.3447 4.56624V10.5969C95.1965 10.7332 96.0483 10.7332 96.866 10.5969V0.307293C96.1846 0.205078 95.5372 0.205078 94.8898 0.307293L90.0857 6.33796V0.307293C89.268 0.171007 88.4162 0.171007 87.5645 0.307293Z" fill="white"/>
<path d="M99.182 3.7138C99.182 5.07666 99.9315 6.20102 101.158 6.74616L98.6709 10.5963C99.0457 10.6644 99.4886 10.6985 100.034 10.6985C100.579 10.6985 101.056 10.6644 101.431 10.5963L103.475 7.46167L103.713 7.12095H104.702V10.5963C105.553 10.7325 106.405 10.7325 107.223 10.5963V3.40715V0.306641H103.066C101.908 0.306641 100.988 0.613284 100.272 1.26064C99.5227 1.87393 99.182 2.69165 99.182 3.7138ZM103.066 2.41908H104.633V2.82794V5.00852H103.407H103.032C102.282 5.00852 101.737 4.56559 101.737 3.7138C101.737 2.89608 102.317 2.41908 103.066 2.41908Z" fill="white"/>
<path d="M32.0275 13.6644V18.5366H30.3239V13.6644C29.8129 13.5962 29.3018 13.5962 28.8248 13.6644V18.5366H27.1212V13.6644C26.6101 13.5962 26.0991 13.5962 25.6221 13.6644V19.7973H33.5607V13.6644C33.0497 13.5962 32.5386 13.5962 32.0275 13.6644Z" fill="white"/>
<path d="M40.3747 13.6638C40.1703 13.6298 39.8637 13.5957 39.4889 13.5957C39.1141 13.5957 38.8074 13.6298 38.603 13.6638L36.5587 16.4577V13.6638C36.0476 13.5957 35.5366 13.5957 35.0596 13.6638V19.7967C35.5706 19.8649 36.0817 19.8649 36.5587 19.7967V16.8325L38.6712 19.7967C38.8756 19.8308 39.1822 19.8649 39.557 19.8649C39.9318 19.8649 40.2384 19.8308 40.4429 19.7967L38.1601 16.6281L40.3747 13.6638Z" fill="white"/>
<path d="M44.1229 13.5273C43.1689 13.5273 42.3853 13.834 41.772 14.4473C41.1587 15.0606 40.8521 15.8101 40.8521 16.7301C40.8521 17.6159 41.1587 18.3996 41.772 19.0129C42.3853 19.6262 43.1689 19.9328 44.1229 19.9328C45.0769 19.9328 45.8606 19.6262 46.4739 19.0129C47.0871 18.3996 47.3938 17.6159 47.3938 16.7301C47.3938 15.8442 47.0871 15.0606 46.4739 14.4473C45.8606 13.834 45.0769 13.5273 44.1229 13.5273ZM45.3495 18.1611C45.0088 18.5018 44.5999 18.7062 44.1229 18.7062C43.6459 18.7062 43.2371 18.5359 42.8963 18.1611C42.5556 17.7863 42.3853 17.3434 42.3853 16.7301C42.3853 16.1509 42.5556 15.6739 42.8963 15.2991C43.2371 14.9243 43.6459 14.7539 44.1229 14.7539C44.5999 14.7539 45.0088 14.9243 45.3495 15.2991C45.6902 15.6398 45.8606 16.1168 45.8606 16.7301C45.8606 17.3434 45.6902 17.8204 45.3495 18.1611Z" fill="white"/>
<path d="M49.0629 17.923C49.0289 18.3659 48.7904 18.6044 48.4497 18.6044C48.3474 18.6044 48.2793 18.6044 48.1771 18.5704C48.1089 18.9792 48.1089 19.4222 48.1771 19.831C48.3815 19.8992 48.62 19.9332 48.8926 19.9332C49.8807 19.9332 50.4599 19.3199 50.5962 18.0593L50.9028 14.9247H52.4701V19.7969C52.9812 19.8651 53.4922 19.8651 53.9693 19.7969V13.6641H49.5059L49.0629 17.923Z" fill="white"/>
<path d="M57.5468 13.6644L55.0596 19.7973C55.5706 19.8654 56.1158 19.8654 56.6269 19.7973L57.0698 18.6388H59.3185L59.7614 19.7973C60.2725 19.8654 60.7836 19.8654 61.3287 19.7973L58.8415 13.6644C58.3986 13.5962 57.9897 13.5962 57.5468 13.6644ZM57.5468 17.3782L58.1942 15.6065L58.8415 17.3782H57.5468Z" fill="white"/>
<path d="M69.0975 16.4239C68.6886 16.0491 68.1094 15.8787 67.428 15.8787H66.5421V14.9247H69.1656C69.2338 14.5159 69.2338 14.107 69.1656 13.6641H65.043V19.7969H67.4621C68.1435 19.7969 68.6886 19.5925 69.1316 19.2518C69.5745 18.877 69.7789 18.4 69.7789 17.8208C69.7448 17.2416 69.5063 16.7646 69.0975 16.4239ZM67.428 18.5704H66.5421V17.1053H67.428C67.8709 17.1053 68.2116 17.3779 68.2116 17.8208C68.1776 18.2978 67.8709 18.5704 67.428 18.5704Z" fill="white"/>
<path d="M75.2303 13.6644L72.3683 17.276V13.6644C71.8572 13.5962 71.3461 13.5962 70.8691 13.6644V19.7973C71.278 19.8654 71.6528 19.8654 72.0616 19.7973L74.9237 16.1857V19.7973C75.4347 19.8654 75.9458 19.8654 76.4228 19.7973V13.6644C76.0139 13.5962 75.6392 13.5962 75.2303 13.6644Z" fill="white"/>
<path d="M81.1587 16.6611C81.6698 16.3885 82.0105 15.8433 82.0105 15.2301C82.0105 14.2079 81.1587 13.5605 79.7959 13.5605C79.0463 13.5605 78.433 13.7309 77.9219 14.0375C77.8879 14.1398 77.8538 14.3783 77.8538 14.7531C77.8538 15.1278 77.8879 15.3323 77.9219 15.4004C78.5693 15.0256 79.1485 14.8212 79.6936 14.8212C80.1706 14.8212 80.4773 15.0597 80.4773 15.5026C80.4773 15.9115 80.2388 16.1841 79.8299 16.1841H78.9441C78.8759 16.5929 78.8759 16.9677 78.9441 17.3766H79.864C80.341 17.3766 80.5795 17.581 80.5795 18.0239C80.5795 18.5009 80.1366 18.7394 79.6596 18.7394C79.0804 18.7394 78.4671 18.535 77.8538 18.1602C77.8197 18.2284 77.7856 18.4669 77.7856 18.8076C77.7856 19.1824 77.8197 19.4209 77.8538 19.5231C78.3649 19.8297 79.0122 20.0001 79.7618 20.0001C80.4773 20.0001 81.0224 19.8297 81.4654 19.5231C81.9083 19.2164 82.1468 18.7735 82.1468 18.1943C82.1127 17.4788 81.7379 16.9336 81.1587 16.6611Z" fill="white"/>
<path d="M88.893 19.7973V13.6644C88.3819 13.5962 87.8709 13.5962 87.3939 13.6644V16.0835H84.8385V13.6644C84.3274 13.5962 83.8164 13.5962 83.3394 13.6644V19.7973C83.8504 19.8654 84.3615 19.8654 84.8385 19.7973V17.31H87.3939V19.7973C87.8709 19.8995 88.3819 19.8995 88.893 19.7973Z" fill="white"/>
<path d="M94.6509 14.9247C94.7191 14.5159 94.7191 14.107 94.6509 13.6641H90.3579V19.7969H94.6509C94.7191 19.3881 94.7191 18.9452 94.6509 18.5363H91.8911V17.3097H94.3443C94.4124 16.9009 94.4124 16.492 94.3443 16.0491H91.8911V14.9247H94.6509Z" fill="white"/>
<path d="M99.1146 14.788C99.6598 14.788 100.273 14.9924 100.886 15.3672C100.92 15.2991 100.954 15.0606 100.954 14.7198C100.954 14.3451 100.92 14.1066 100.886 14.0043C100.375 13.6977 99.762 13.5273 99.0124 13.5273C97.9562 13.5273 97.1385 13.834 96.4911 14.4473C95.8438 15.0606 95.5371 15.8101 95.5371 16.7301C95.5371 17.65 95.8438 18.3996 96.4911 19.0129C97.1385 19.6262 97.9562 19.9328 99.0124 19.9328C99.762 19.9328 100.375 19.7624 100.886 19.4558C100.92 19.3536 100.954 19.1151 100.954 18.7403C100.954 18.3655 100.92 18.1611 100.886 18.0929C100.239 18.4677 99.6598 18.6721 99.1146 18.6721C98.5354 18.6721 98.0584 18.5018 97.6836 18.127C97.3088 17.7522 97.1044 17.3093 97.1044 16.696C97.1044 16.1168 97.3088 15.6398 97.6836 15.265C98.0584 14.9583 98.5354 14.788 99.1146 14.788Z" fill="white"/>
<path d="M104.464 13.6644L101.977 19.7973C102.488 19.8654 103.033 19.8654 103.544 19.7973L103.987 18.6388H106.236L106.678 19.7973C107.19 19.8654 107.701 19.8654 108.246 19.7973L105.759 13.6644C105.316 13.5962 104.873 13.5962 104.464 13.6644ZM105.759 17.3782H104.464L105.111 15.6065L105.759 17.3782Z" fill="white"/>
</svg>
